<?xml version="1.0" encoding="utf-8"?>
<!-- Generator: Adobe Illustrator 14.0.0, SVG Export Plug-In . SVG Version: 6.00 Build 43363)  -->
<!DOCTYPE svg PUBLIC "-//W3C//DTD SVG 1.1//EN" "http://www.w3.org/Graphics/SVG/1.1/DTD/svg11.dtd">
<svg version="1.1" id="Layer_1" xmlns="http://www.w3.org/2000/svg" xmlns:xlink="http://www.w3.org/1999/xlink" x="0px" y="0px"
	 width="612px" height="792px" viewBox="0 0 612 792" enable-background="new 0 0 612 792" xml:space="preserve">
<g>
	<polygon fill-rule="evenodd" clip-rule="evenodd" fill="#FFFFFF" points="209,300 401.756,300 401.756,492.756 209,492.756 
		209,300 	"/>
	<path fill-rule="evenodd" clip-rule="evenodd" d="M288.363,307.284l7.396,45.874l6.085-18.136h1.988l4.8,38.673l5.02-6.571
		l6.984-27.276l7.006,32.951l11.566,7.226l1.092,14.184l9.164,0.218l5.697-27.302l2.619,27.084l5.455,0.218l6.547-27.302
		l3.734,27.084h8.922v53.488c0,15.3-13.092,26.429-25.748,26.429H253.424c-14.208,0-24.465-14.402-25.12-26.429v-53.488
		l6.547-18.331l4.801-32.102l5.916,22.913l6.449-32.636l8.244,33.048l5.819,5.043l5.043-5.02l1.576-32.053h2.279l4.631,16.778
		L288.363,307.284L288.363,307.284z M367.359,415.352h-3.25c0-3.71-3.902-9.771-9.141-9.99c-8.947,0.219-11.129,9.941-11.129,9.941
		h-20.125l-0.387-3.734l18.281,0.073c0,0,2.375-9.312,13.311-9.359C364.207,402.282,367.359,411.642,367.359,415.352
		L367.359,415.352z M317.799,415.303h-3.273c0-3.71-3.879-9.771-9.141-9.989c-8.922,0.218-11.081,9.94-11.081,9.94l-19.542,0.049
		l-0.388-3.734l17.676,0.024c0,0,2.4-9.311,13.312-9.359C314.646,402.233,317.799,411.593,317.799,415.303L317.799,415.303z
		 M270.445,415.303h-3.249c0-3.71-3.903-9.771-9.141-9.989c-8.947,0.218-11.129,9.94-11.129,9.94l-15.299,0.049l-0.388-3.734
		l13.433,0.024c0,0,2.4-9.311,13.336-9.359C267.293,402.233,270.445,411.593,270.445,415.303L270.445,415.303z M290.57,408.149
		h-16.391c0.558-3.491,3.637-5.432,7.71-5.625C285.938,402.912,289.018,402.718,290.57,408.149L290.57,408.149z M242.95,408.149
		h-11.202c0.412-3.491,2.498-5.432,5.261-5.625C239.773,402.912,241.882,402.718,242.95,408.149L242.95,408.149z M339.936,408.149
		h-16.391c0.559-3.491,3.637-5.432,7.711-5.625C335.305,402.912,338.385,402.718,339.936,408.149L339.936,408.149z M378.707,408.149
		l-9.529-0.023c0.072-3.273,5.262-4.825,9.529-4.825V408.149L378.707,408.149z M379.604,411.666l0.072,3.637h-9.262v-3.686
		L379.604,411.666L379.604,411.666z M274.155,418.843v10.717h-10.256v39.086h-13.991c-2.594-0.218-5.455-0.873-6.765-3.492V429.56
		h-11.129v-10.717H274.155L274.155,418.843z M311.955,468.669h-14.063l-2.498-9.868h-8.486l-2.473,9.845h-12.899l11.347-49.778
		h16.172L311.955,468.669L311.955,468.669z M336.469,434.627l6.158-15.857l9.674,0.098l-11.008,26.21l11.664,23.568h-16.609
		l-3.176-11.396l-4.244,11.42h-13.117l8.898-23.592l-13.238-26.21h19.445L336.469,434.627L336.469,434.627z M377.422,418.867v25.968
		c-0.824,13.19-6.063,19.203-15.301,23.834h-3.879l-0.023-49.802H377.422L377.422,418.867z M293.601,448.98h-5.237l2.594-13.771
		L293.601,448.98L293.601,448.98z"/>
</g>
</svg>
